<?xml version="1.0" standalone="no"?>
<!DOCTYPE svg PUBLIC "-//W3C//DTD SVG 20010904//EN"
 "http://www.w3.org/TR/2001/REC-SVG-20010904/DTD/svg10.dtd">
<svg version="1.0" xmlns="http://www.w3.org/2000/svg"
 width="128.000000pt" height="128.000000pt" viewBox="0 0 128.000000 128.000000"
 preserveAspectRatio="xMidYMid meet">
<metadata>
Created by potrace 1.14, written by Peter Selinger 2001-2017
</metadata>
<g transform="translate(0.000000,128.000000) scale(0.100000,-0.100000)"
fill="#000000" stroke="none">
<path d="M561 1140 c-93 -21 -144 -67 -165 -148 -21 -77 7 -333 43 -402 15
-29 21 -59 21 -103 0 -59 -1 -61 -16 -38 -15 20 -21 22 -68 16 -28 -4 -55 -8
-61 -10 -5 -1 -38 -7 -72 -15 -34 -7 -75 -20 -91 -30 -33 -20 -60 -71 -68
-129 -6 -44 -1 -49 77 -75 208 -69 482 -92 701 -59 120 18 314 71 329 89 19
23 -6 117 -40 153 -28 30 -68 44 -170 62 -117 21 -129 21 -145 -3 -15 -21 -16
-19 -16 43 0 38 6 73 14 84 19 29 34 81 41 150 3 33 8 74 11 90 25 168 -9 261
-114 307 -47 21 -155 30 -211 18z"/>
</g>
</svg>
